<svg width="437.307470703125px" height="104.08627929687499px" xmlns="http://www.w3.org/2000/svg" viewBox="31.34626464843751 22.956860351562504 437.307470703125 104.08627929687499" style="background-color: rgb(253, 253, 253); background-position: initial initial; background-repeat: initial initial;" preserveAspectRatio="xMidYMid"><defs><filter id="editing-hole" x="-100%" y="-100%" width="300%" height="300%"><feFlood flood-color="none" result="black"></feFlood><feMorphology operator="dilate" radius="2" in="SourceGraphic" result="erode"></feMorphology><feGaussianBlur in="erode" stdDeviation="4" result="blur"></feGaussianBlur><feOffset in="blur" dx="2" dy="2" result="offset"></feOffset><feComposite operator="atop" in="offset" in2="black" result="merge"></feComposite><feComposite operator="in" in="merge" in2="SourceGraphic" result="inner-shadow"></feComposite></filter></defs><g filter="url(#editing-hole)"><g transform="translate(96.3600127696991, 99.46281433105469)"><path d="M2.70-34.31L2.70-35.29L17.54-35.29L17.54-35.29Q21.29-35.29 24.40-34.15L24.40-34.15L24.40-34.15Q27.51-33.02 29.80-30.84L29.80-30.84L29.80-30.84Q32.08-28.66 33.36-25.28L33.36-25.28L33.36-25.28Q34.64-21.89 34.64-17.59L34.64-17.59L34.64-17.59Q34.64-12.42 32.47-8.41L32.47-8.41L32.47-8.41Q30.29-4.40 26.39-2.20L26.39-2.20L26.39-2.20Q22.49 0 17.49 0L17.49 0L2.70 0L2.70-0.98L7.11-2.70L7.11-32.59L2.70-34.31ZM17.20-32.73L17.20-32.73L11.77-32.73L11.77-2.54L17.35-2.54L17.35-2.54Q19.76-2.54 21.95-3.47L21.95-3.47L21.95-3.47Q24.14-4.40 25.85-6.17L25.85-6.17L25.85-6.17Q27.56-7.94 28.58-10.77L28.58-10.77L28.58-10.77Q29.60-13.59 29.60-17.11L29.60-17.11L29.60-17.11Q29.60-24.64 26.37-28.69L26.37-28.69L26.37-28.69Q23.14-32.73 17.20-32.73ZM47.88-2.70L52.28-0.98L52.28 0L39.05 0L39.05-0.98L43.45-2.70L43.45-20.67L39.05-22.39L39.05-23.38L47.37-25.10L47.88-24.60L47.88-2.70ZM41.85-32.30L41.85-32.30L41.85-32.30Q41.85-33.54 42.72-34.42L42.72-34.42L42.72-34.42Q43.59-35.29 44.88-35.29L44.88-35.29L44.88-35.29Q46.13-35.29 47.00-34.42L47.00-34.42L47.00-34.42Q47.88-33.54 47.88-32.30L47.88-32.30L47.88-32.30Q47.88-31.01 47.00-30.13L47.00-30.13L47.00-30.13Q46.13-29.26 44.88-29.26L44.88-29.26L44.88-29.26Q43.59-29.26 42.72-30.13L42.72-30.13L42.72-30.13Q41.85-31.01 41.85-32.30ZM77.06-12.80L76.37-12.11L60.89-12.11L60.89-12.11Q60.92-9.43 61.66-7.44L61.66-7.44L61.66-7.44Q62.40-5.46 63.67-4.33L63.67-4.33L63.67-4.33Q64.93-3.21 66.45-2.68L66.45-2.68L66.45-2.68Q67.97-2.15 69.77-2.15L69.77-2.15L69.77-2.15Q72.26-2.15 75.10-3.83L75.10-3.83L75.84-2.39L75.84-2.39Q73.83-0.62 71.83-0.01L71.83-0.01L71.83-0.01Q69.82 0.60 67.26 0.60L67.26 0.60L67.26 0.60Q65.03 0.60 62.97-0.35L62.97-0.35L62.97-0.35Q60.92-1.29 59.36-2.95L59.36-2.95L59.36-2.95Q57.80-4.62 56.87-7.03L56.87-7.03L56.87-7.03Q55.94-9.45 55.94-12.25L55.94-12.25L55.94-12.25Q55.94-14.91 56.62-17.09L56.62-17.09L56.62-17.09Q57.30-19.28 58.43-20.74L58.43-20.74L58.43-20.74Q59.55-22.20 61.05-23.21L61.05-23.21L61.05-23.21Q62.54-24.21 64.11-24.66L64.11-24.66L64.11-24.66Q65.68-25.10 67.30-25.10L67.30-25.10L67.30-25.10Q69.34-25.10 71.07-24.34L71.07-24.34L71.07-24.34Q72.81-23.59 74.16-22.12L74.16-22.12L74.16-22.12Q75.51-20.65 76.29-18.26L76.29-18.26L76.29-18.26Q77.06-15.86 77.06-12.80L77.06-12.80ZM67.40-22.78L67.40-22.78L67.40-22.78Q64.65-22.78 63.01-20.60L63.01-20.60L63.01-20.60Q61.37-18.42 60.99-14.64L60.99-14.64L72.40-14.64L72.40-14.64Q72.40-18.47 71.11-20.62L71.11-20.62L71.11-20.62Q69.82-22.78 67.40-22.78ZM88.19 0.93L88.19 0.93L88.19 0.93Q85.85 2.37 85.85 5.48L85.85 5.48L85.85 5.48Q85.85 6.89 86.54 7.84L86.54 7.84L86.54 7.84Q87.23 8.78 88.31 9.34L88.31 9.34L88.31 9.34Q89.39 9.91 90.70 10.14L90.70 10.14L90.70 10.14Q92.02 10.38 93.24 10.38L93.24 10.38L93.24 10.38Q94.51 10.38 95.79 10.13L95.79 10.13L95.79 10.13Q97.07 9.88 98.08 9.39L98.08 9.39L98.08 9.39Q99.10 8.90 99.75 8.17L99.75 8.17L99.75 8.17Q100.39 7.44 100.39 6.46L100.39 6.46L100.39 6.46Q100.39 4.95 99.64 4.04L99.64 4.04L99.64 4.04Q98.89 3.13 97.59 2.60L97.59 2.60L97.59 2.60Q96.30 2.06 94.55 1.79L94.55 1.79L94.55 1.79Q92.81 1.53 90.82 1.32L90.82 1.32L90.82 1.32Q89.98 1.22 89.33 1.12L89.33 1.12L89.33 1.12Q88.67 1.03 88.19 0.93ZM93.00-6.68L93.00-6.68L93.00-6.68Q90.54-6.68 88.48-7.44L88.48-7.44L88.48-7.44Q86.97-6.44 86.97-4.90L86.97-4.90L86.97-4.90Q86.97-4.02 87.99-3.49L87.99-3.49L87.99-3.49Q89.00-2.97 90.63-2.74L90.63-2.74L90.63-2.74Q92.26-2.51 94.22-2.32L94.22-2.32L94.22-2.32Q96.18-2.13 98.14-1.72L98.14-1.72L98.14-1.72Q100.11-1.32 101.73-0.61L101.73-0.61L101.73-0.61Q103.36 0.10 104.38 1.52L104.38 1.52L104.38 1.52Q105.39 2.94 105.39 5.00L105.39 5.00L105.39 5.00Q105.39 6.65 104.60 8.02L104.60 8.02L104.60 8.02Q103.81 9.38 102.53 10.25L102.53 10.25L102.53 10.25Q101.25 11.13 99.53 11.72L99.53 11.72L99.53 11.72Q97.81 12.32 96.03 12.58L96.03 12.58L96.03 12.58Q94.24 12.85 92.40 12.85L92.40 12.85L92.40 12.85Q87.26 12.85 84.36 11.07L84.36 11.07L84.36 11.07Q81.47 9.28 81.47 6.41L81.47 6.41L81.47 6.41Q81.47 2.27 86.04 0.38L86.04 0.38L86.04 0.38Q83.19-0.57 83.19-3.18L83.19-3.18L83.19-3.18Q83.19-6.24 86.92-8.28L86.92-8.28L86.92-8.28Q84.84-9.55 83.73-11.58L83.73-11.58L83.73-11.58Q82.62-13.61 82.62-15.89L82.62-15.89L82.62-15.89Q82.62-17.63 83.31-19.27L83.31-19.27L83.31-19.27Q84.00-20.91 85.28-22.22L85.28-22.22L85.28-22.22Q86.56-23.52 88.57-24.31L88.57-24.31L88.57-24.31Q90.58-25.10 93.00-25.10L93.00-25.10L93.00-25.10Q95.10-25.10 96.85-24.50L96.85-24.50L106.47-24.50L106.47-23.52L101.23-21.65L101.23-21.65Q103.38-19.14 103.38-15.89L103.38-15.89L103.38-15.89Q103.38-14.14 102.68-12.50L102.68-12.50L102.68-12.50Q101.97-10.86 100.69-9.56L100.69-9.56L100.69-9.56Q99.41-8.25 97.41-7.46L97.41-7.46L97.41-7.46Q95.42-6.68 93.00-6.68ZM87.59-15.89L87.59-15.89L87.59-15.89Q87.59-12.61 89.03-10.86L89.03-10.86L89.03-10.86Q90.46-9.12 93.00-9.12L93.00-9.12L93.00-9.12Q95.51-9.12 96.95-10.87L96.95-10.87L96.95-10.87Q98.38-12.63 98.38-15.89L98.38-15.89L98.38-15.89Q98.38-19.14 96.95-20.89L96.95-20.89L96.95-20.89Q95.51-22.63 93.00-22.63L93.00-22.63L93.00-22.63Q90.46-22.63 89.03-20.89L89.03-20.89L89.03-20.89Q87.59-19.14 87.59-15.89ZM121.14-25.10L121.14-25.10L121.14-25.10Q123.86-25.10 126.04-24.17L126.04-24.17L126.04-24.17Q128.22-23.23 129.73-21.55L129.73-21.55L129.73-21.55Q131.23-19.86 132.03-17.49L132.03-17.49L132.03-17.49Q132.84-15.12 132.84-12.25L132.84-12.25L132.84-12.25Q132.84-9.40 132.05-7.03L132.05-7.03L132.05-7.03Q131.26-4.67 129.75-2.97L129.75-2.97L129.75-2.97Q128.24-1.27 126.06-0.33L126.06-0.33L126.06-0.33Q123.89 0.60 121.14 0.60L121.14 0.60L121.14 0.60Q118.36 0.60 116.18-0.33L116.18-0.33L116.18-0.33Q114.01-1.27 112.50-2.97L112.50-2.97L112.50-2.97Q110.99-4.67 110.20-7.02L110.20-7.02L110.20-7.02Q109.41-9.38 109.41-12.25L109.41-12.25L109.41-12.25Q109.41-15.12 110.21-17.49L110.21-17.49L110.21-17.49Q111.02-19.86 112.52-21.55L112.52-21.55L112.52-21.55Q114.03-23.23 116.21-24.17L116.21-24.17L116.21-24.17Q118.38-25.10 121.14-25.10ZM115.92-20.03L115.92-20.03L115.92-20.03Q114.08-17.04 114.08-12.25L114.08-12.25L114.08-12.25Q114.08-9.88 114.54-7.91L114.54-7.91L114.54-7.91Q115.01-5.93 115.91-4.51L115.91-4.51L115.91-4.51Q116.81-3.09 118.12-2.30L118.12-2.30L118.12-2.30Q119.44-1.51 121.14-1.51L121.14-1.51L121.14-1.51Q122.83-1.51 124.17-2.30L124.17-2.30L124.17-2.30Q125.51-3.09 126.44-4.51L126.44-4.51L126.44-4.51Q127.36-5.93 127.85-7.91L127.85-7.91L127.85-7.91Q128.34-9.88 128.34-12.25L128.34-12.25L128.34-12.25Q128.34-14.59 127.85-16.57L127.85-16.57L127.85-16.57Q127.36-18.54 126.44-19.97L126.44-19.97L126.44-19.97Q125.51-21.39 124.17-22.19L124.17-22.19L124.17-22.19Q122.83-22.99 121.14-22.99L121.14-22.99L121.14-22.99Q117.74-22.99 115.92-20.03ZM181.67-10.58L181.72-0.89L181.72-0.89Q177.53 0.60 173.15 0.60L173.15 0.60L173.15 0.60Q170.18 0.60 167.49-0.06L167.49-0.06L167.49-0.06Q164.80-0.72 162.44-2.15L162.44-2.15L162.44-2.15Q160.09-3.59 158.35-5.65L158.35-5.65L158.35-5.65Q156.62-7.70 155.63-10.68L155.63-10.68L155.63-10.68Q154.63-13.66 154.63-17.25L154.63-17.25L154.63-17.25Q154.63-21.75 156.09-25.37L156.09-25.37L156.09-25.37Q157.55-29.00 160.08-31.31L160.08-31.31L160.08-31.31Q162.60-33.62 165.95-34.84L165.95-34.84L165.95-34.84Q169.30-36.06 173.15-36.06L173.15-36.06L173.15-36.06Q177.22-36.06 181.38-34.74L181.38-34.74L181.33-25.62L180.35-25.62L177.36-32.44L177.36-32.44Q175.35-33.33 172.07-33.33L172.07-33.33L172.07-33.33Q170.16-33.33 168.46-32.83L168.46-32.83L168.46-32.83Q166.76-32.32 165.20-31.15L165.20-31.15L165.20-31.15Q163.63-29.98 162.49-28.20L162.49-28.20L162.49-28.20Q161.36-26.41 160.69-23.69L160.69-23.69L160.69-23.69Q160.02-20.96 160.02-17.54L160.02-17.54L160.02-17.54Q160.02-13.90 161.08-10.92L161.08-10.92L161.08-10.92Q162.15-7.94 163.99-6.02L163.99-6.02L163.99-6.02Q165.83-4.09 168.26-3.05L168.26-3.05L168.26-3.05Q170.69-2.01 173.44-2.01L173.44-2.01L173.44-2.01Q175.88-2.01 178.06-2.70L178.06-2.70L180.69-10.58L181.67-10.58ZM197.87-25.10L197.87-25.10L197.87-25.10Q200.59-25.10 202.77-24.17L202.77-24.17L202.77-24.17Q204.95-23.23 206.46-21.55L206.46-21.55L206.46-21.55Q207.96-19.86 208.76-17.49L208.76-17.49L208.76-17.49Q209.57-15.12 209.57-12.25L209.57-12.25L209.57-12.25Q209.57-9.40 208.78-7.03L208.78-7.03L208.78-7.03Q207.99-4.67 206.48-2.97L206.48-2.97L206.48-2.97Q204.97-1.27 202.79-0.33L202.79-0.33L202.79-0.33Q200.62 0.60 197.87 0.60L197.87 0.60L197.87 0.60Q195.09 0.60 192.91-0.33L192.91-0.33L192.91-0.33Q190.74-1.27 189.23-2.97L189.23-2.97L189.23-2.97Q187.72-4.67 186.93-7.02L186.93-7.02L186.93-7.02Q186.14-9.38 186.14-12.25L186.14-12.25L186.14-12.25Q186.14-15.12 186.94-17.49L186.94-17.49L186.94-17.49Q187.75-19.86 189.25-21.55L189.25-21.55L189.25-21.55Q190.76-23.23 192.94-24.17L192.94-24.17L192.94-24.17Q195.11-25.10 197.87-25.10ZM192.65-20.03L192.65-20.03L192.65-20.03Q190.81-17.04 190.81-12.25L190.81-12.25L190.81-12.25Q190.81-9.88 191.27-7.91L191.27-7.91L191.27-7.91Q191.74-5.93 192.64-4.51L192.64-4.51L192.64-4.51Q193.54-3.09 194.85-2.30L194.85-2.30L194.85-2.30Q196.17-1.51 197.87-1.51L197.87-1.51L197.87-1.51Q199.56-1.51 200.90-2.30L200.90-2.30L200.90-2.30Q202.24-3.09 203.17-4.51L203.17-4.51L203.17-4.51Q204.09-5.93 204.58-7.91L204.58-7.91L204.58-7.91Q205.07-9.88 205.07-12.25L205.07-12.25L205.07-12.25Q205.07-14.59 204.58-16.57L204.58-16.57L204.58-16.57Q204.09-18.54 203.17-19.97L203.17-19.97L203.17-19.97Q202.24-21.39 200.90-22.19L200.90-22.19L200.90-22.19Q199.56-22.99 197.87-22.99L197.87-22.99L197.87-22.99Q194.47-22.99 192.65-20.03ZM222.29-2.70L226.46-0.98L226.46 0L213.49 0L213.49-0.98L217.89-2.70L217.89-20.67L213.49-22.39L213.49-23.38L221.82-25.10L222.29-24.60L222.29-21.75L222.29-21.75Q223.95-23.33 226.11-24.21L226.11-24.21L226.11-24.21Q228.28-25.10 230.48-25.10L230.48-25.10L230.48-25.10Q232.63-25.10 234.38-24.08L234.38-24.08L234.38-24.08Q236.12-23.06 237.01-21.03L237.01-21.03L237.01-21.03Q238.66-22.92 241.04-24.01L241.04-24.01L241.04-24.01Q243.42-25.10 245.86-25.10L245.86-25.10L245.86-25.10Q247.30-25.10 248.56-24.64L248.56-24.64L248.56-24.64Q249.83-24.19 250.85-23.27L250.85-23.27L250.85-23.27Q251.87-22.35 252.46-20.82L252.46-20.82L252.46-20.82Q253.06-19.28 253.06-17.30L253.06-17.30L253.06-2.70L257.49-0.98L257.49 0L244.50 0L244.50-0.98L248.66-2.70L248.66-15.84L248.66-15.84Q248.66-19.26 247.48-20.61L247.48-20.61L247.48-20.61Q246.29-21.96 243.47-21.96L243.47-21.96L243.47-21.96Q239.90-21.96 237.44-19.64L237.44-19.64L237.44-19.64Q237.68-18.45 237.68-17.30L237.68-17.30L237.68-2.70L241.84-0.98L241.84 0L229.11 0L229.11-0.98L233.28-2.70L233.28-15.84L233.28-15.84Q233.28-19.26 232.09-20.61L232.09-20.61L232.09-20.61Q230.91-21.96 228.08-21.96L228.08-21.96L228.08-21.96Q224.69-21.96 222.29-19.83L222.29-19.83L222.29-2.70ZM279.05-3.33L283.47-2.11L283.47-1.22L278.28 0.38L278.28 0.38Q276.75 0.72 275.70 0.04L275.70 0.04L275.70 0.04Q274.64-0.65 274.64-2.30L274.64-2.30L274.64-2.30Q271.53 0.60 267.35 0.60L267.35 0.60L267.35 0.60Q263.88 0.60 262.15-1.20L262.15-1.20L262.15-1.20Q260.43-2.99 260.43-5.69L260.43-5.69L260.43-5.69Q260.43-7.73 261.34-9.30L261.34-9.30L261.34-9.30Q262.25-10.86 263.66-11.80L263.66-11.80L263.66-11.80Q265.07-12.73 267.04-13.35L267.04-13.35L267.04-13.35Q269.00-13.97 270.82-14.21L270.82-14.21L270.82-14.21Q272.63-14.45 274.64-14.50L274.64-14.50L274.64-16.80L274.64-16.80Q274.64-20.15 273.59-21.46L273.59-21.46L273.59-21.46Q272.54-22.78 270.10-22.78L270.10-22.78L270.10-22.78Q268.26-22.78 265.77-22.20L265.77-22.20L263.23-16.65L262.06-16.65L262.06-23.47L262.06-23.47Q264.21-24.24 266.60-24.67L266.60-24.67L266.60-24.67Q269.00-25.10 270.82-25.10L270.82-25.10L270.82-25.10Q274.76-25.10 276.91-23.51L276.91-23.51L276.91-23.51Q279.05-21.92 279.05-18.28L279.05-18.28L279.05-3.33ZM269.36-2.20L269.36-2.20L269.36-2.20Q270.72-2.20 272.16-2.86L272.16-2.86L272.16-2.86Q273.59-3.52 274.64-4.67L274.64-4.67L274.64-12.54L274.64-12.54Q269.86-12.32 267.35-10.59L267.35-10.59L267.35-10.59Q264.83-8.85 264.83-6.17L264.83-6.17L264.83-6.17Q264.83-4.12 266.15-3.16L266.15-3.16L266.15-3.16Q267.47-2.20 269.36-2.20ZM287.13-8.09L288.35-8.09L290.91-2.66L290.91-2.66Q291.22-2.46 291.68-2.31L291.68-2.31L291.68-2.31Q292.13-2.15 292.66-2.03L292.66-2.03L292.66-2.03Q293.19-1.91 293.74-1.84L293.74-1.84L293.74-1.84Q294.29-1.77 294.81-1.77L294.81-1.77L294.81-1.77Q296.03-1.77 297.03-2.02L297.03-2.02L297.03-2.02Q298.02-2.27 298.74-2.74L298.74-2.74L298.74-2.74Q299.46-3.21 299.84-3.89L299.84-3.89L299.84-3.89Q300.22-4.57 300.22-5.43L300.22-5.43L300.22-5.43Q300.22-6.56 299.30-7.57L299.30-7.57L299.30-7.57Q298.38-8.59 296.70-9.55L296.70-9.55L294.14-10.98L294.14-10.98Q292.78-11.70 291.60-12.47L291.60-12.47L291.60-12.47Q290.41-13.23 289.53-14.14L289.53-14.14L289.53-14.14Q288.64-15.05 288.13-16.15L288.13-16.15L288.13-16.15Q287.61-17.25 287.61-18.61L287.61-18.61L287.61-18.61Q287.61-20.27 288.26-21.49L288.26-21.49L288.26-21.49Q288.90-22.71 290.10-23.51L290.10-23.51L290.10-23.51Q291.30-24.31 292.98-24.70L292.98-24.70L292.98-24.70Q294.67-25.10 296.73-25.10L296.73-25.10L296.73-25.10Q299.89-25.10 303.04-24.07L303.04-24.07L302.95-17.15L301.97-17.15L299.43-22.78L299.43-22.78Q298.52-22.90 297.86-22.97L297.86-22.97L297.86-22.97Q297.21-23.04 296.78-23.04L296.78-23.04L296.78-23.04Q295.48-23.04 294.54-22.74L294.54-22.74L294.54-22.74Q293.59-22.44 292.98-21.95L292.98-21.95L292.98-21.95Q292.37-21.46 292.07-20.84L292.07-20.84L292.07-20.84Q291.77-20.22 291.77-19.55L291.77-19.55L291.77-19.55Q291.77-18.76 292.07-18.12L292.07-18.12L292.07-18.12Q292.37-17.49 292.96-16.92L292.96-16.92L292.96-16.92Q293.55-16.34 294.43-15.78L294.43-15.78L294.43-15.78Q295.32-15.22 296.49-14.59L296.49-14.59L296.49-14.59Q298.16-13.69 299.25-13.11L299.25-13.11L299.25-13.11Q300.34-12.54 300.82-12.20L300.82-12.20L300.82-12.20Q304.58-9.69 304.58-6.41L304.58-6.41L304.58-6.41Q304.58-4.64 303.73-3.31L303.73-3.31L303.73-3.31Q302.88-1.99 301.50-1.09L301.50-1.09L301.50-1.09Q300.13-0.19 298.40 0.25L298.40 0.25L298.40 0.25Q296.68 0.69 294.93 0.69L294.93 0.69L294.93 0.69Q294.02 0.69 292.97 0.57L292.97 0.57L292.97 0.57Q291.92 0.45 290.87 0.24L290.87 0.24L290.87 0.24Q289.81 0.02 288.84-0.28L288.84-0.28L288.84-0.28Q287.88-0.57 287.13-0.93L287.13-0.93L287.13-8.09Z" fill="#080808"></path></g></g><style>text {
  font-size: 64px;
  font-family: Arial Black;
  dominant-baseline: central;
  text-anchor: middle;
}</style></svg>